PathFileType	3	(X/Y/Z)	D:\Vicon Database\Healthy Subjects\S0040\Jan. 30, 2020\Force Plate Walk 3.trc
DataRate	CameraRate	NumFrames	NumMarkers	Units	OrigDataRate	OrigDataStartFrame	OrigNumFrames
100.0	100.0	5	53	mm	100.0	298	290	
Frame#	Time	right_foot_cluster2			right_foot_cluster3			sternum_cluster1			sternum_cluster2			sternum_cluster3			left_asis			right_asis			left_psis			right_psis			sacrum_cluster1			sacrum_cluster2			sacrum_cluster3			left_lat_femoral_epicondyle			left_anterior_thigh15			left_anterior_thigh25			left_anterior_thigh50			left_lateral_thigh25			left_lateral_thigh50			left_thigh_cluster1			left_thigh_cluster2			left_thigh_cluster3			left_fibular_head			left_tibial_tuberosity			left_anterior_shank30			left_lateral_malleolus			left_shank_cluster1			left_shank_cluster2			left_shank_cluster3			left_heel			left_metatarsal2			left_foot_cluster1			left_foot_cluster2			left_foot_cluster3			right_lat_femoral_epicondyle			right_anterior_thigh15			right_anterior_thigh25			right_anterior_thigh50			right_lateral_thigh25			right_lateral_thigh50			right_thigh_cluster1			right_thigh_cluster2			right_thigh_cluster3			right_fibular_head			right_tibial_tuberosity			right_lateral_distal_shank			right_anterior_shank30			right_lateral_malleolus			right_shank_cluster1			right_shank_cluster2			right_shank_cluster3			right_heel			right_metatarsal2			right_foot_cluster1			
		X1	Y1	Z1	X2	Y2	Z2	X3	Y3	Z3	X4	Y4	Z4	X5	Y5	Z5	X6	Y6	Z6	X7	Y7	Z7	X8	Y8	Z8	X9	Y9	Z9	X10	Y10	Z10	X11	Y11	Z11	X12	Y12	Z12	X13	Y13	Z13	X14	Y14	Z14	X15	Y15	Z15	X16	Y16	Z16	X17	Y17	Z17	X18	Y18	Z18	X19	Y19	Z19	X20	Y20	Z20	X21	Y21	Z21	X22	Y22	Z22	X23	Y23	Z23	X24	Y24	Z24	X25	Y25	Z25	X26	Y26	Z26	X27	Y27	Z27	X28	Y28	Z28	X29	Y29	Z29	X30	Y30	Z30	X31	Y31	Z31	X32	Y32	Z32	X33	Y33	Z33	X34	Y34	Z34	X35	Y35	Z35	X36	Y36	Z36	X37	Y37	Z37	X38	Y38	Z38	X39	Y39	Z39	X40	Y40	Z40	X41	Y41	Z41	X42	Y42	Z42	X43	Y43	Z43	X44	Y44	Z44	X45	Y45	Z45	X46	Y46	Z46	X47	Y47	Z47	X48	Y48	Z48	X49	Y49	Z49	X50	Y50	Z50	X51	Y51	Z51	X52	Y52	Z52	X53	Y53	Z53	
298	2.97	3666.6199	107.14565	-171.79324	3666.127	110.0073	-209.08031	3551.5737	1444.2241	-152.25122	3544.8098	1414.8188	-142.7189	3543.3362	1417.0841	-180.89073	3625.8511	1074.2672	-22.686977	3609.6594	1076.7975	-269.52902																3560.0156	566.33325	11.153314	3480.0874	662.34265	-29.113276	3498.4419	751.12231	-20.089193	3554.3911	878.30927	-14.758529	3605.5103	708.33722	31.218622	3651.2673	851.51172	51.300545	3637.417	806.06482	59.438137	3631.3152	775.91315	56.653202	3599.4768	795.57959	62.077648	3567.9841	494.98001	18.872307	3508.9158	467.90152	-28.275211	3643.6716	249.86861	-47.210392	3741.0649	167.82838	-25.740332	3531.5723	413.49844	-56.989807	3541.5024	387.67902	-47.870605	3548.9644	392.15823	-85.813759	3817.498	160.33841	-75.544273	3615.5955	82.875153	-41.86842	3652.8601	149.4173	-42.153416	3638.9797	125.00693	-29.636702	3627.6877	127.88657	-66.419411	3697.3975	535.56158	-264.64932	3608.6309	621.17041	-208.93719	3591.0886	698.79944	-211.72722	3582.8525	827.414	-227.12857	3686.2427	694.31049	-296.34045	3676.7607	840.05084	-328.22415	3690.2344	786.61682	-332.94794	3678.146	761.41785	-327.0105	3717.2554	762.59619	-325.88428	3715.4568	468.61768	-265.49329	3661.6372	456.09195	-219.22098	3763.1987	202.84818	-241.60054	3716.5227	212.97049	-195.85381	3778.751	100.22235	-224.33827	3681.9077	393.56302	-162.60396	3691.7153	367.61191	-154.15604	3668.1689	361.2338	-181.79849	3852.9163	66.279198	-186.56752	3633.9907	74.769661	-180.71559	3690.9192	120.4853	-181.42822
299	2.98	3666.3918	106.69231	-171.46272	3666.1274	109.75287	-208.77939	3540.2466	1443.5104	-151.67601	3533.3379	1414.4316	-142.52905	3531.7361	1416.5626	-180.22746	3614.9517	1074.1344	-23.152752	3598.5742	1075.8215	-269.96429																3541.9011	568.55994	10.441305	3464.2319	666.45251	-30.661449	3483.8889	754.85358	-21.736172	3541.7996	880.6543	-16.027981	3588.7312	710.40424	31.44874	3637.543	852.86389	51.595619	3622.3044	807.65955	59.881359	3615.6399	777.18304	57.060886	3586.5166	796.47986	61.690353	3548.2825	496.71356	18.112417	3487.8784	471.63687	-28.595556	3609.7986	246.67348	-46.187088	3702.5527	159.17642	-24.816984	3506.8901	416.23294	-56.557499	3515.2029	390.05038	-47.143204	3522.8823	393.54703	-85.418602	3778.7407	147.60718	-74.314224	3572.6472	81.53447	-41.037277	3613.5474	145.96049	-41.296612	3598.1868	122.40667	-28.708998	3587.2034	125.90338	-65.430923	3693.6072	535.09241	-264.06137	3604.6077	619.58691	-207.6613	3584.5459	697.1488	-210.7774	3573.9587	825.59534	-226.74269	3679.4944	693.35425	-295.63715	3667.6279	839.20001	-327.76157	3681.9504	785.98102	-332.76572	3669.6987	760.51538	-327.15839	3709.4727	762.54492	-325.66	3712.6719	468.23331	-263.96237	3658.9241	455.51611	-218.46577	3762.2019	203.14034	-240.92201	3715.2214	212.83482	-195.33102	3777.8877	100.41663	-223.51445	3680.2236	393.62796	-161.24442	3689.8499	367.18475	-153.60045	3665.8987	361.09991	-181.20683	3853.408	67.650055	-186.29362	3633.7979	74.521767	-180.54346	3690.5042	120.29839	-180.99072
300	2.99	3666.0247	106.71423	-170.78903	3665.4937	109.46781	-208.38823	3528.6118	1443.4908	-151.82214	3521.7825	1413.6637	-142.32671	3520.3369	1415.7937	-180.25812	3603.9539	1073.8506	-23.347664	3587.1228	1075.1462	-270.25204																3524.4578	570.52295	10.061756	3448.928	669.8996	-32.253952	3469.6287	757.92834	-23.472984	3529.2056	882.71814	-17.268469	3572.2725	712.05811	31.806599	3624.2141	853.22754	51.395828	3606.7961	809.40808	60.955788	3600.6453	779.39105	57.518555	3569.0425	800.08801	62.282715	3528.7705	497.35629	17.585005	3467.4744	475.53436	-29.535728	3575.9077	243.83774	-45.31004	3663.3472	150.96568	-23.89443	3483.363	418.75067	-56.567814	3488.5627	392.79633	-47.422756	3497.3499	395.42117	-85.477005	3738.5381	134.38023	-73.031288	3529.425	80.816566	-40.451321	3573.7539	142.86176	-40.701077	3557.0471	120.34071	-27.930912	3546.3643	124.38579	-64.768295	3690.418	534.85352	-263.16562	3601.7915	617.3728	-206.99075	3577.8462	695.4845	-209.49306	3565.0134	823.38989	-226.18694	3672.6443	692.66528	-295.08334	3658.6184	839.01178	-328.11472	3673.5852	785.13464	-332.28784	3661.4072	759.75934	-326.44223	3701.4507	762.38257	-325.47824	3709.7188	468.10577	-263.61057	3656.4351	455.13257	-218.01851	3761.6431	203.53935	-240.34088	3714.0383	212.73323	-195.06143	3777.9556	100.6217	-223.38141	3677.9199	393.31555	-161.01007	3687.6614	366.8157	-153.12465	3663.604	360.72214	-181.19395	3852.9238	67.427299	-186.21132	3633.5847	74.134193	-180.41234	3690.0935	120.16397	-180.57893
301	3	3665.9158	106.56752	-170.54475	3665.1858	109.37706	-208.16568	3517.0857	1442.2421	-151.08528	3510.2244	1412.7299	-141.91461	3508.4177	1415.1584	-179.95428	3592.8372	1073.3774	-23.462751	3575.8396	1073.4429	-270.44864													3765.2598	1136.1777	-114.51268	3507.5496	571.30847	9.573844	3433.8899	672.81342	-33.606094	3455.5361	760.56641	-24.985601	3516.6333	884.34186	-18.313593	3556.5442	713.41974	31.878851	3609.854	854.42804	52.013699	3592.2253	810.24249	61.137375	3586.1306	780.59009	57.776184	3554.1299	801.51471	62.346127	3509.4033	497.82687	17.426605	3447.7053	478.80173	-29.909475	3542.2549	241.10388	-45.045303	3623.625	143.36165	-22.866724	3459.9487	421.36508	-56.951221	3462.4944	395.3299	-46.866436	3472.9116	397.11545	-85.723297	3698	122.26549	-71.593437	3485.5896	81.329674	-39.877262	3533.7129	140.50673	-40.287323	3515.8267	118.79976	-27.702446	3505.8735	123.13591	-64.122482	3686.8904	534.68085	-262.95572	3596.5825	615.73743	-206.20309	3569.5784	694.22253	-208.51906	3555.6868	821.71716	-225.72137	3666.0488	692.52332	-294.97629	3649.0369	837.28613	-327.31781	3662.3865	785.55011	-332.58234	3653.7205	758.90161	-326.21017	3693.1187	761.93195	-325.46286	3707.6929	468.35327	-263.50757	3654.2761	454.70251	-217.6192	3760.8772	203.67484	-239.99118	3713.1162	212.64139	-194.76378	3777.6636	100.9116	-223.12151	3675.4453	392.69403	-160.867	3685.2568	366.34711	-153.23924	3661.3774	360.48676	-181.04906	3852.7346	67.417763	-186.16371	3633.3921	73.889603	-180.14273	3689.8433	119.97681	-180.28726
302	3.01	3665.6235	106.46525	-170.39561	3664.9246	109.24898	-207.96027	3505.3022	1440.9675	-150.8882	3498.5112	1411.6241	-141.65114	3496.8274	1413.9982	-179.53828	3581.405	1072.6794	-23.430017	3564.2112	1072.4556	-270.78625													3753.1853	1134.3275	-115.03011	3491.2839	572.09308	9.334219	3419.6785	674.84344	-34.959408	3441.6997	762.59546	-26.459995	3504.054	885.33771	-19.203566	3541.1411	714.29572	31.728573	3596.2026	854.44769	52.337292	3578.0603	810.55109	61.373169	3571.0813	781.60144	58.65255	3539.575	802.39288	62.069118	3489.8723	497.5799	17.109531	3428.5146	481.84204	-30.633598	3507.8074	239.10852	-45.138638	3583.408	136.69933	-22.03212	3437.5513	423.9227	-57.73402	3438.894	397.3916	-48.263885	3449.2258	399.23273	-86.308983	3656.7083	110.92579	-70.114082	3442.0801	82.239403	-39.886177	3493.5396	138.83556	-40.111614	3474.3428	118.26912	-27.68796	3464.3313	123.78453	-64.229225	3683.5808	534.6839	-262.7879	3591.6077	614.18054	-205.98343	3563.0698	692.45026	-207.85367	3545.9448	819.60321	-224.90027	3659.0054	691.58069	-294.64282	3639.2078	836.00592	-327.16287	3653.356	784.33594	-332.18317	3645.2383	757.61066	-325.79898	3684.7119	761.44897	-325.58438	3705.0156	468.47211	-263.83002	3651.6099	453.93274	-217.66455	3759.3674	203.71474	-240.10245	3711.8584	212.49416	-194.81232	3777.261	101.16575	-222.8557	3673.1389	392.35883	-160.78767	3683.0378	366.0545	-153.24599	3659.7681	359.99426	-180.7986	3852.4683	67.431023	-186.2018	3633.1687	73.6325	-180.12592	3689.6172	119.79134	-180.13304
